/* XPM */
static char * dungeon_stone_ground_xpm[] = {
"32 32 63 1",
" 	c #000000",
".	c #000000",
"+	c #211D1D",
"@	c #6F5756",
"#	c #FCA89D",
"$	c #D41900",
"%	c #FE8270",
"&	c #A15C52",
"*	c #812611",
"=	c #FB9B72",
"-	c #E17B50",
";	c #FF4D00",
">	c #A84111",
",	c #8C6A56",
"'	c #453625",
")	c #874A00",
"!	c #BAA368",
"~	c #FAE898",
"{	c #FAFA82",
"]	c #D3D9B2",
"^	c #999F8E",
"/	c #82A368",
"(	c #00FF8C",
"_	c #07BB79",
":	c #323C39",
"<	c #14605D",
"[	c #696A6A",
"}	c #00EDFF",
"|	c #DEF9FC",
"1	c #748F93",
"2	c #17394A",
"3	c #3494CB",
"4	c #3B6983",
"5	c #0C1317",
"6	c #1F324D",
"7	c #12274D",
"8	c #A5B5D4",
"9	c #0F1833",
"0	c #4C63E0",
"a	c #CDD1EC",
"b	c #42428F",
"c	c #31314B",
"d	c #1E1B80",
"e	c #2F1D5A",
"f	c #5A5875",
"g	c #222034",
"h	c #76428A",
"i	c #B598B2",
"j	c #8D768A",
"k	c #D77BBA",
"l	c #8F4975",
"m	c #472138",
"n	c #EF3E6D",
"o	c #70162B",
"p	c #D95763",
"q	c #8294AF",
"r	c #5C855B",
"s	c #244B3A",
"t	c #111F12",
"u	c #1B0B0B",
"v	c #10162E",
"w	c #1A130F",
"x	c #1C1429",
"55555555555555555555555555555555",
"55555555555555555555555555555555",
"55555555555555555555555555555555",
"55555555555555555555555555555555",
"55555555555555555555555555555555",
"55555555555555555555555555555555",
"55555555555555555555555555555555",
"55555555555555555555555555555555",
"55555555555555555555555555555555",
"5555555555ccccc55555555555555555",
"555555555ccccccc5555555555555555",
"55555555ccccccccc555555555555555",
"55555555ccccccccc555555555555555",
"55555555ccccccccc555555555555555",
"555555555ccccccc5555555555555555",
"55555555555555555555555555555555",
"55555555555555555555555555555555",
"555555555ccc555555ccccc555555555",
"55555555ccccc5555cccccccc5555555",
"55555555ccccc555cccccccccc555555",
"5555555555555555cccccccccc555555",
"5555555555555555cccccccccc555555",
"55555555555555555cccccccc5555555",
"55555555555555555555555555555555",
"55555555555555555555555555555555",
"55555555555555555555555555555555",
"55555555555555555555555555555555",
"55555555555555555555555555555555",
"55555555555555555555555555555555",
"55555555555555555555555555555555",
"55555555555555555555555555555555",
"55555555555555555555555555555555"};
