/* XPM */
static char *_069b95efa0e4140f419ce790842f754fYJLygr8fS9tIfZ4[] = {
/* columns rows colors chars-per-pixel */
"32 32 9 1 ",
"  c #111F12",
". c #A84111",
"X c #FCA89D",
"o c black",
"O c #DEF9FC",
"+ c #A5B5D4",
"@ c #82A368",
"# c #14605D",
"$ c #472138",
/* pixels */
"                                ",
"                                ",
"                                ",
"             .....              ",
"            .......             ",
"            .XX....             ",
"            XXXX...             ",
"            oXoo..XX            ",
"            XXXX..X             ",
"            XXXX...             ",
"       O    .XXX...             ",
"      O+   @@XXX....@@          ",
"      O+  @@@@@@...@@#          ",
"      O+   @@@@@..@@#           ",
"      O+  #@@@@@..@#@@          ",
"      O. ###@@@@@@@#@@@         ",
"     ....###@@@@@@@ @@@         ",
"     ...####......   @@         ",
"     ...##  ......   ..         ",
"           #@@@@@@  ...         ",
"           #@@@@@@@ ...         ",
"           ###@@@@@  .          ",
"           ####@@@@             ",
"           ####@@@@@            ",
"           $$$$ @@@@            ",
"            $$$  ....           ",
"            $$$   ...           ",
"            $$$   ...           ",
"            $$$   ...           ",
"           $$$$   ...           ",
"                  ...           ",
"                                "
};
