/* XPM */
static char * shroom_xpm[] = {
"32 32 64 1",
" 	c #111F12",
".	c #000000",
"+	c #000000",
"@	c #211D1D",
"#	c #6F5756",
"$	c #FCA89D",
"%	c #D41900",
"&	c #FE8270",
"*	c #A15C52",
"=	c #812611",
"-	c #FB9B72",
";	c #E17B50",
">	c #FF4D00",
",	c #A84111",
"'	c #8C6A56",
")	c #453625",
"!	c #874A00",
"~	c #BAA368",
"{	c #FAE898",
"]	c #FAFA82",
"^	c #D3D9B2",
"/	c #999F8E",
"(	c #82A368",
"_	c #00FF8C",
":	c #07BB79",
"<	c #323C39",
"[	c #14605D",
"}	c #696A6A",
"|	c #00EDFF",
"1	c #DEF9FC",
"2	c #748F93",
"3	c #17394A",
"4	c #3494CB",
"5	c #3B6983",
"6	c #0C1317",
"7	c #1F324D",
"8	c #12274D",
"9	c #A5B5D4",
"0	c #0F1833",
"a	c #4C63E0",
"b	c #CDD1EC",
"c	c #42428F",
"d	c #31314B",
"e	c #1E1B80",
"f	c #2F1D5A",
"g	c #5A5875",
"h	c #222034",
"i	c #76428A",
"j	c #B598B2",
"k	c #8D768A",
"l	c #D77BBA",
"m	c #8F4975",
"n	c #472138",
"o	c #EF3E6D",
"p	c #70162B",
"q	c #D95763",
"r	c #8294AF",
"s	c #5C855B",
"t	c #244B3A",
"u	c #111F12",
"v	c #1B0B0B",
"w	c #10162E",
"x	c #1A130F",
"y	c #1C1429",
"                                ",
"                                ",
"                                ",
"                                ",
"                                ",
"                                ",
"                                ",
"      ,,,      ,,,              ",
"     ,,,      ,,,,,             ",
"              ,,,,,             ",
"       $     ,,,,,,,            ",
"            ,,,,,,,,,           ",
"           ,,,,,,,,,,           ",
"          ,,,,,,,,,,,,          ",
"         ,,,,,,,,,,,,,          ",
"         ,,,,,,,,,,,,,,         ",
"          ,,,,,,,,,,,,,         ",
"           ,,,,,,,,,,,          ",
"             ,,,,,,,,,          ",
"              ,,,,,,,           ",
"             $$                 ",
"       ,,,   $$$$$$     ,,      ",
"      ,,,    $$$$$$     ,,,     ",
"             $$$$$       ,,,    ",
"        $     $$$               ",
"                         $      ",
"                                ",
"                                ",
"                                ",
"                                ",
"                                ",
"                                "};
