/* XPM */
static char * tileset_grassland_props_xpm[] = {
"32 32 142 2",
"  	c None",
". 	c #265A2E",
"+ 	c #2A652F",
"@ 	c #2B6630",
"# 	c #204D2C",
"$ 	c #2B6730",
"% 	c #2E6C31",
"& 	c #214D2C",
"* 	c #1F492B",
"= 	c #2D6A30",
"- 	c #285F2E",
"; 	c #2E6D31",
"> 	c #275C2E",
", 	c #29622F",
"' 	c #24562B",
") 	c #25582D",
"! 	c #2D6B31",
"~ 	c #2C6830",
"{ 	c #214F2C",
"] 	c #26592D",
"^ 	c #1C4326",
"/ 	c #193C23",
"( 	c #193C22",
"_ 	c #204C28",
": 	c #1B4023",
"< 	c #1C4127",
"[ 	c #1E472A",
"} 	c #2C6930",
"| 	c #2D6C31",
"1 	c #225329",
"2 	c #1F4928",
"3 	c #22502B",
"4 	c #2C6730",
"5 	c #285E2D",
"6 	c #1E4926",
"7 	c #1D4527",
"8 	c #1E4828",
"9 	c #225129",
"0 	c #173621",
"a 	c #23532A",
"b 	c #265C2A",
"c 	c #1C4225",
"d 	c #1F4A28",
"e 	c #1E4629",
"f 	c #275E2E",
"g 	c #24572C",
"h 	c #1F4929",
"i 	c #163521",
"j 	c #14311E",
"k 	c #1A3E25",
"l 	c #163621",
"m 	c #1D4529",
"n 	c #28602E",
"o 	c #1A3E23",
"p 	c #11291A",
"q 	c #193C24",
"r 	c #193B24",
"s 	c #1C4328",
"t 	c #1D4629",
"u 	c #204C29",
"v 	c #265A2D",
"w 	c #265B2B",
"x 	c #1E4826",
"y 	c #265B2E",
"z 	c #275D2C",
"A 	c #285E2E",
"B 	c #24552D",
"C 	c #29602F",
"D 	c #23532C",
"E 	c #24542D",
"F 	c #1E482A",
"G 	c #1F4A2B",
"H 	c #22502C",
"I 	c #204B2B",
"J 	c #1C4227",
"K 	c #214E2C",
"L 	c #1B4026",
"M 	c #1B3F26",
"N 	c #193D24",
"O 	c #173822",
"P 	c #1F482A",
"Q 	c #163520",
"R 	c #1A3D24",
"S 	c #193B23",
"T 	c #1B4127",
"U 	c #1F482B",
"V 	c #173721",
"W 	c #15311E",
"X 	c #183922",
"Y 	c #163420",
"Z 	c #11281A",
"` 	c #132E1D",
" .	c #1D4428",
"..	c #102619",
"+.	c #15331F",
"@.	c #183A23",
"#.	c #10271A",
"$.	c #112A1B",
"%.	c #15321F",
"&.	c #122C1C",
"*.	c #102719",
"=.	c #122B1B",
"-.	c #252719",
";.	c #252718",
">.	c #282718",
",.	c #162619",
"'.	c #55422B",
").	c #3C2B1A",
"!.	c #443320",
"~.	c #3B2A19",
"{.	c #473622",
"].	c #604B31",
"^.	c #3D2D1B",
"/.	c #56432C",
"(.	c #463521",
"_.	c #59452D",
":.	c #473623",
"<.	c #4C3A25",
"[.	c #604B32",
"}.	c #453421",
"|.	c #644E34",
"1.	c #58442D",
"2.	c #4B3A26",
"3.	c #42311E",
"4.	c #56422B",
"5.	c #443421",
"6.	c #5D4930",
"7.	c #5B472F",
"8.	c #513E28",
"9.	c #57432C",
"0.	c #3F2F1D",
"a.	c #392A1A",
"b.	c #5C4830",
"c.	c #4E3C26",
"d.	c #5E4930",
"e.	c #53412D",
"f.	c #463522",
"g.	c #392B1B",
"h.	c #372B21",
"i.	c #4B3A27",
"j.	c #3C2D1F",
"k.	c #54412A",
"                                                                ",
"                                .                               ",
"                              + @ #                             ",
"                            $ $ % & *                           ",
"                          = - % ; > * *                         ",
"                        , ' ) ! ; ~ { * *                       ",
"                      $ ] ^ / ( _ : < [ *                       ",
"                    ; ; } | 1 = ~ - 2 3 * *                     ",
"                    | 4 % ; 5 ; ; } 6 ) * *                     ",
"                  @ 7 8 ! | 9 ; = @ 0 a * * *                   ",
"                  . b c ' d e f g h i j k l m                   ",
"                  = ; n o p q r ( s t u v m *                   ",
"                ; ; ; ; w x y [ z * [ A B * * *                 ",
"                ; C @ . 3 ~ D * . * m a E * * F                 ",
"              G H G I m J K K * * * * L I F * M J               ",
"              * [ k N p L * F O P * * Q R e S q k               ",
"                T J U * q V O W V X Y Q j Z 0 [ *               ",
"              * * * * X [ * * * * e * [ U ` [ * * *             ",
"              * P  .s ..T T  . .T +.U * * O @.[ @.*             ",
"            O L +.Z Z ..Z #.p ..#...p $.%.&.Z O *.0             ",
"              =...........-.;.;.>.;.,...........                ",
"                          '.).!.~.{.                            ",
"                          ].^./.(._.:.                          ",
"                          <.(.[.}.|.1.                          ",
"                        2.3.4./.5.6.6.                          ",
"                        7.8.9.0.a.b.c.d.                        ",
"                      e.f.<.g.h.  i.j.k.9.                      ",
"                                                                ",
"                                                                ",
"                                                                ",
"                                                                ",
"                                                                "};
